<?xml version="1.0" encoding="UTF-8"?>
<svg width="238px" height="188px" viewBox="0 0 238 188" version="1.1" xmlns="http://www.w3.org/2000/svg" xmlns:xlink="http://www.w3.org/1999/xlink">
    <!-- Generator: Sketch 61.2 (89653) - https://sketch.com -->
    <title>Group 4</title>
    <desc>Created with Sketch.</desc>
    <g id="Page-1" stroke="none" stroke-width="1" fill="none" fill-rule="evenodd">
        <g id="Desktop-HD-Copy" transform="translate(-1072.000000, -314.000000)">
            <g id="Group-4" transform="translate(1072.000000, 314.000000)">
                <polygon id="Fill-357" fill="#D7E2F0" points="0 188 238 188 238 1 0 1"></polygon>
                <path d="M238,188 L149.00138,188 L151.045249,33.6360032 C100.699569,33.1996315 50.3456803,32.7665409 0,32.3301693 L0,1 L238,1 L238,188 Z" id="Fill-358" fill="#D1DEEF"></path>
                <path d="M238,188 L215.956579,188 C216.092016,127.272164 216.227453,66.5410475 216.36289,5.81321169 C144.240559,5.18982367 72.1223314,4.56315466 0,3.93648566 L0,1 L238,1 L238,188 Z" id="Fill-360" fill="#A3C0E6"></path>
                <polygon id="Fill-361" fill="#8EABD0" points="222 97 238 97 238 0 222 0"></polygon>
                <polygon id="Fill-364" fill="#8EABD0" points="222 188 238 188 238 94 222 94"></polygon>
                <path d="M238,188 L222,188 L222,178.77416 C225.352722,178.718085 228.709421,178.658713 232.06612,178.59934 C231.998509,150.40066 231.934874,122.201979 231.867263,94 L238,94 L238,188 Z" id="Fill-365" fill="#8EABD0"></path>
                <path d="M152,98.3606816 C153.01432,103.031508 153.902864,107.879068 154.621002,112.892542 C158.507876,139.914805 156.527924,164.34016 152.401671,184.823266 C160.32148,184.812446 168.257518,184.812446 176.213842,184.823266 C190.738902,184.844907 205.194988,184.906223 219.594272,185 C219.728162,156.001202 219.86611,127.002405 220,98 C197.331981,98.1226317 174.663962,98.2416566 152,98.3606816" id="Fill-367" fill="#FFFFFF"></path>
                <path d="M197.451807,98.1262385 C201.332973,103.518428 209.984996,117.271216 207.601608,134.594751 C204.414236,157.754115 182.812748,177.73948 153,184.823266 C160.970472,184.812446 168.953187,184.812446 176.956308,184.823266 C191.566799,184.8413 206.10791,184.906223 220.591886,185 C220.726563,156.001202 220.861241,127.002405 221,98 C213.151963,98.0432818 205.303925,98.0829568 197.451807,98.1262385" id="Fill-368" fill="#ECF2FA"></path>
                <path d="M162.5456,100.181009 C165.06209,111.790945 167.062486,126.032756 166.998507,142.312732 C166.938794,157.966415 164.993846,171.70864 162.5456,183 L153.848782,182.822611 C156.220254,171.864308 158.079897,158.549265 158.088427,143.391547 C158.101223,126.485279 155.797995,111.794565 153,100 L162.5456,100.181009 Z" id="Fill-370" fill="#ECF2FA"></path>
                <path d="M152,5.36068156 C153.01432,10.0315078 153.902864,14.879068 154.621002,19.8925418 C158.507876,46.9148045 156.527924,71.3437668 152.401671,91.823266 C160.32148,91.8124456 168.257518,91.8124456 176.213842,91.823266 C190.738902,91.8449069 205.194988,91.9062228 219.594272,92 C219.728162,63.0012023 219.86611,34.0024045 220,5 C197.331981,5.12263173 174.663962,5.24165665 152,5.36068156" id="Fill-371" fill="#FFFFFF"></path>
                <path d="M197.451807,5.12623855 C201.332973,10.5184279 209.984996,24.271216 207.601608,41.5947515 C204.414236,64.7541147 182.812748,84.7394801 153,91.823266 C160.970472,91.8124456 168.953187,91.8124456 176.956308,91.823266 C191.566799,91.8413001 206.10791,91.9062228 220.591886,92 C220.726563,63.0012023 220.861241,34.0024045 221,5 C213.151963,5.04328179 205.303925,5.08295676 197.451807,5.12623855" id="Fill-372" fill="#ECF2FA"></path>
                <path d="M162.5456,8.18100929 C165.06209,19.7909452 167.062486,34.0327561 166.998507,50.3127317 C166.938794,65.9664151 164.993846,79.7086405 162.5456,91 L153.848782,90.8226109 C156.220254,79.8643085 158.079897,66.5492651 158.088427,51.3915471 C158.101223,34.4852794 155.797995,19.7945654 153,8 L162.5456,8.18100929 Z" id="Fill-374" fill="#ECF2FA"></path>
            </g>
        </g>
    </g>
</svg>