<?xml version="1.0" encoding="UTF-8"?>
<svg width="190px" height="263px" viewBox="0 0 190 263" version="1.1" xmlns="http://www.w3.org/2000/svg" xmlns:xlink="http://www.w3.org/1999/xlink">
    <!-- Generator: Sketch 61.2 (89653) - https://sketch.com -->
    <title>Group 3</title>
    <desc>Created with Sketch.</desc>
    <g id="Page-1" stroke="none" stroke-width="1" fill="none" fill-rule="evenodd">
        <g id="Desktop-HD-Copy" transform="translate(-583.000000, -229.000000)">
            <g id="Group-3" transform="translate(678.000000, 360.500000) scale(-1, 1) translate(-678.000000, -360.500000) translate(583.000000, 229.000000)">
                <polygon id="Fill-233" fill="#F8EAE1" transform="translate(146.000000, 46.500000) scale(-1, 1) translate(-146.000000, -46.500000) " points="102 92 190 92 190 1 102 1"></polygon>
                <polygon id="Fill-237" fill="#F8EAE1" transform="translate(51.500000, 131.500000) scale(-1, 1) translate(-51.500000, -131.500000) " points="0 263 103 263 103 0 0 0"></polygon>
                <path d="M23.0102418,1.19596224 C23.5838108,1.28554498 27.4782967,1.95741551 29.8400517,6.1510074 C32.4331623,10.7477216 30.9679102,15.6467776 30.7992134,16.1730761 C31.5944983,77.2908987 32.0186502,121.852712 31.9993706,127.138093 C31.9945507,128.336262 31.9559914,131.090931 30.558218,133.823205 C29.3677007,136.157955 27.7867708,137.42891 26.9625665,138 C17.9782576,137.580081 8.98430889,137.165761 0,136.745842 L0,1 C7.66847395,1.06718705 15.3417678,1.12877518 23.0102418,1.19596224" id="Fill-245" fill="#EECFBB" transform="translate(16.000000, 69.500000) scale(-1, 1) translate(-16.000000, -69.500000) "></path>
                <path d="M23.0102418,135.181119 C23.5838108,135.266018 27.4782967,135.894274 29.8400517,139.810966 C32.4331623,144.106876 30.9679102,148.680124 30.7992134,149.1782 C31.5944983,206.281539 32.0186502,247.916206 31.9993706,252.857351 C31.9945507,253.972363 31.9559914,256.547645 30.558218,259.100287 C29.3677007,261.279372 27.7867708,262.473624 26.9625665,263 C17.9782576,262.615123 8.98430889,262.224585 0,261.828388 L0,135 C7.66847395,135.06226 15.3417678,135.118859 23.0102418,135.181119" id="Fill-247" fill="#EECFBB" transform="translate(16.000000, 199.000000) scale(-1, 1) translate(-16.000000, -199.000000) "></path>
                <path d="M29.110244,19.4170477 C29.1629693,19.9002993 29.5416334,23.1864099 31.9286548,25.1774063 C34.5505438,27.3665359 37.3354022,26.1294119 37.6373748,25.9892689 C72.4361212,26.6561561 97.8066122,27.0185947 100.816752,26.9992647 C101.497388,26.9944322 103.069563,26.9654371 104.622565,25.7863033 C105.950286,24.7763075 106.678855,23.4425332 107,22.7514835 C106.765132,15.1692665 106.525472,7.58221698 106.290604,0 L29,0 L29.110244,19.4170477 Z" id="Fill-253" fill="#EECFBB" transform="translate(68.000000, 13.500000) scale(-1, 1) translate(-68.000000, -13.500000) "></path>
                <path d="M106.120717,19.4170477 C106.173833,19.9002993 106.589101,23.1864099 109.157967,25.1774063 C111.977926,27.3665359 114.976546,26.1294119 115.304898,25.9892689 C152.780409,26.6561561 180.101173,27.0185947 183.341228,26.9992647 C184.07519,26.9944322 185.765233,26.9654371 187.440791,25.7863033 C188.870085,24.7763075 189.652334,23.4425332 190,22.7514835 C189.744079,15.1692665 189.488158,7.58221698 189.232237,0 L106,0 C106.03863,6.4707384 106.082088,12.9463093 106.120717,19.4170477" id="Fill-255" fill="#EECFBB" transform="translate(148.000000, 13.500000) scale(-1, 1) translate(-148.000000, -13.500000) "></path>
            </g>
        </g>
    </g>
</svg>