<?xml version="1.0" encoding="UTF-8"?>
<svg width="84px" height="272px" viewBox="0 0 84 272" version="1.1" xmlns="http://www.w3.org/2000/svg" xmlns:xlink="http://www.w3.org/1999/xlink">
    <!-- Generator: Sketch 61.2 (89653) - https://sketch.com -->
    <title>Group 5</title>
    <desc>Created with Sketch.</desc>
    <g id="Page-1" stroke="none" stroke-width="1" fill="none" fill-rule="evenodd">
        <g id="Desktop-HD-Copy" transform="translate(-128.000000, -623.000000)">
            <g id="Group-5" transform="translate(128.000000, 623.000000)">
                <polygon id="Fill-177" fill="#D6C3C3" points="0 272 84 272 84 0 0 0"></polygon>
                <polygon id="Fill-185" fill="#52534B" points="0 232 84 232 84 137 0 137"></polygon>
                <path d="M35,164 C35,170.076594 30.0776471,175 24.0023529,175 C17.9270588,175 13,170.076594 13,164 C13,157.923406 17.9270588,153 24.0023529,153 C30.0776471,153 35,157.923406 35,164" id="Fill-186" fill="#3F3F3B"></path>
                <path d="M35,206 C35,212.076594 30.0776471,217 24.0023529,217 C17.9270588,217 13,212.076594 13,206 C13,199.923406 17.9270588,195 24.0023529,195 C30.0776471,195 35,199.923406 35,206" id="Fill-187" fill="#3F3F3B"></path>
                <path d="M70,160.5 C70,165.193668 66.193668,169 61.5,169 C56.8014832,169 53,165.193668 53,160.5 C53,155.806332 56.8014832,152 61.5,152 C66.193668,152 70,155.806332 70,160.5" id="Fill-189" fill="#3F3F3B"></path>
            </g>
        </g>
    </g>
</svg>